# xmcd
# 
# Track frame offsets:
#     150
#     20837
#     50807
#     65182
#     92370
#     113037
#     136062
#     147202
#     165527
#     196412
#     218090
#     246815
#     289015
#     301797
# 
# Disc length: 4261
# 
# Revision: 4
# Processed by: cddbd v1.5.2PL0 Copyright (c) Steve Scherf et al.
# Submitted via: fre:ac v1.0.31
# 
DISCID=c910a30e
DTITLE=Janis Joplin - Live At The Carousel Ballroom 1968
DYEAR=2012
DGENRE=Rock/Pop
TTITLE0=Combination Of The Two (live) (mono)
TTITLE1=I Need A Man To Love (live) (mono)
TTITLE2=Flower In The Sun (live) (mono)
TTITLE3=Light Is Faster Than Sound (live) (mono)
TTITLE4=Summertime (live) (mono)
TTITLE5=Catch Me Daddy (live) (mono)
TTITLE6=It's A Deal (live) (mono)
TTITLE7=Call On Me (live) (mono)
TTITLE8=Jam - I'm Mad (Mad Man Blues) (live) (mono)
TTITLE9=Piece Of My Heart (live) (mono)
TTITLE10=Coo Coo (live) (mono)
TTITLE11=Ball and Chain (live) (mono)
TTITLE12=Down On Me (live) (mono)
TTITLE13=Call On Me (live 06-22-68) (mono)
EXTD=
EXTT0=
EXTT1=
EXTT2=
EXTT3=
EXTT4=
EXTT5=
EXTT6=
EXTT7=
EXTT8=
EXTT9=
EXTT10=
EXTT11=
EXTT12=
EXTT13=
PLAYORDER=
